<?xml version="1.0" encoding="UTF-8"?>
<!DOCTYPE svg PUBLIC "-//W3C//DTD SVG 1.1//EN" "http://www.w3.org/Graphics/SVG/1.1/DTD/svg11.dtd">
<svg xmlns="http://www.w3.org/2000/svg" version="1.1" width="1660px" height="1656px" style="shape-rendering:geometricPrecision; text-rendering:geometricPrecision; image-rendering:optimizeQuality; fill-rule:evenodd; clip-rule:evenodd" xmlns:xlink="http://www.w3.org/1999/xlink">
<g><path style="opacity:1" fill="#e5e6e5" d="M -0.5,-0.5 C 552.833,-0.5 1106.17,-0.5 1659.5,-0.5C 1659.5,551.5 1659.5,1103.5 1659.5,1655.5C 1657.17,1655.5 1654.83,1655.5 1652.5,1655.5C 1652.83,1104.67 1652.5,554 1651.5,3.5C 1101.33,3.16677 551.333,3.5001 1.5,4.5C 1.5,554.5 1.5,1104.5 1.5,1654.5C 1.5,1654.83 1.5,1655.17 1.5,1655.5C 0.833333,1655.5 0.166667,1655.5 -0.5,1655.5C -0.5,1103.5 -0.5,551.5 -0.5,-0.5 Z"/></g>
<g><path style="opacity:1" fill="#000c72" d="M 1.5,4.5 C 551.167,4.5 1100.83,4.5 1650.5,4.5C 1650.5,554.5 1650.5,1104.5 1650.5,1654.5C 1100.83,1654.5 551.167,1654.5 1.5,1654.5C 1.5,1104.5 1.5,554.5 1.5,4.5 Z"/></g>
<g><path style="opacity:1" fill="#1d2880" d="M 1.5,4.5 C 551.333,3.5001 1101.33,3.16677 1651.5,3.5C 1651.83,554 1651.5,1104.33 1650.5,1654.5C 1650.5,1104.5 1650.5,554.5 1650.5,4.5C 1100.83,4.5 551.167,4.5 1.5,4.5 Z"/></g>
<g><path style="opacity:1" fill="#ecbefc" d="M 1046.5,353.5 C 1046.5,359.5 1046.5,365.5 1046.5,371.5C 1058.83,371.5 1071.17,371.5 1083.5,371.5C 1098.29,374.126 1107.46,382.793 1111,397.5C 1111.67,523.5 1111.67,649.5 1111,775.5C 1108.22,790.081 1099.72,799.414 1085.5,803.5C 1023.5,803.5 961.5,803.5 899.5,803.5C 899.333,814.505 899.5,825.505 900,836.5C 900.232,837.737 900.732,838.737 901.5,839.5C 907.12,848.778 915.453,852.278 926.5,850C 943.238,855.071 954.405,865.905 960,882.5C 960.667,886.833 960.667,891.167 960,895.5C 958.833,896.667 957.667,897.833 956.5,899C 869.833,899.667 783.167,899.667 696.5,899C 695.299,898.097 694.465,896.931 694,895.5C 692.801,876.401 700.635,862.235 717.5,853C 720.445,851.869 723.445,851.036 726.5,850.5C 731.414,850.638 736.081,849.972 740.5,848.5C 745.642,847.362 749.309,844.362 751.5,839.5C 752.222,839.082 752.722,838.416 753,837.5C 753.5,826.172 753.667,814.838 753.5,803.5C 693.668,802.667 633.668,802.167 573.5,802C 571.655,800.872 569.655,800.372 567.5,800.5C 563.328,798.842 559.828,796.175 557,792.5C 553.624,787.201 551.124,781.534 549.5,775.5C 549.5,682.5 549.5,589.5 549.5,496.5C 546.5,496.5 543.5,496.5 540.5,496.5C 530.608,494.03 523.608,488.03 519.5,478.5C 519.108,476.821 518.608,475.154 518,473.5C 517.5,428.168 517.333,382.835 517.5,337.5C 520.763,327.238 527.429,320.238 537.5,316.5C 602.811,315.514 668.144,315.181 733.5,315.5C 744.456,317.784 752.122,324.117 756.5,334.5C 756.979,346.663 757.646,358.663 758.5,370.5C 798.833,370.5 839.167,370.5 879.5,370.5C 879.333,352.164 879.5,333.83 880,315.5C 881.167,314.333 882.333,313.167 883.5,312C 904.167,311.333 924.833,311.333 945.5,312C 947.751,312.748 949.084,314.248 949.5,316.5C 949.5,334.833 949.5,353.167 949.5,371.5C 956.354,371.824 963.021,371.491 969.5,370.5C 969.333,356.496 969.5,342.496 970,328.5C 978.784,308.027 993.284,302.527 1013.5,312C 1022.2,318.232 1026.53,326.732 1026.5,337.5C 1037.05,338.057 1043.72,343.39 1046.5,353.5 Z"/></g>
<g><path style="opacity:1" fill="#7f6bbb" d="M 733.5,315.5 C 668.144,315.181 602.811,315.514 537.5,316.5C 538.263,315.732 539.263,315.232 540.5,315C 605.001,314.168 669.335,314.335 733.5,315.5 Z"/></g>
<g><path style="opacity:1" fill="#7865b7" d="M 949.5,316.5 C 950.497,334.326 950.83,352.326 950.5,370.5C 956.833,370.5 963.167,370.5 969.5,370.5C 963.021,371.491 956.354,371.824 949.5,371.5C 949.5,353.167 949.5,334.833 949.5,316.5 Z"/></g>
<g><path style="opacity:1" fill="#040d73" d="M 1010.5,330.5 C 1010.5,339.167 1010.5,347.833 1010.5,356.5C 1001.83,356.5 993.167,356.5 984.5,356.5C 984.5,349.167 984.5,341.833 984.5,334.5C 987.689,321.933 995.022,318.767 1006.5,325C 1008.44,326.432 1009.77,328.265 1010.5,330.5 Z"/></g>
<g><path style="opacity:1" fill="#010c72" d="M 894.5,326.5 C 907.833,326.5 921.167,326.5 934.5,326.5C 934.5,332.5 934.5,338.5 934.5,344.5C 929.968,344.182 925.634,344.515 921.5,345.5C 918.155,346.348 916.488,348.515 916.5,352C 916.43,355.366 917.763,357.866 920.5,359.5C 924.97,360.486 929.637,360.819 934.5,360.5C 934.5,366.5 934.5,372.5 934.5,378.5C 931.615,378.194 928.948,378.527 926.5,379.5C 923.126,380.691 921.46,383.191 921.5,387C 921.707,389.924 923.04,392.09 925.5,393.5C 928.287,394.477 931.287,394.81 934.5,394.5C 934.5,400.5 934.5,406.5 934.5,412.5C 929.968,412.182 925.634,412.515 921.5,413.5C 918.147,414.512 916.48,416.846 916.5,420.5C 916.561,423.628 917.894,425.961 920.5,427.5C 924.97,428.486 929.637,428.819 934.5,428.5C 934.5,434.5 934.5,440.5 934.5,446.5C 931.287,446.19 928.287,446.523 925.5,447.5C 920.529,451.508 920.195,456.008 924.5,461C 928.152,461.499 931.818,461.665 935.5,461.5C 935.5,467.5 935.5,473.5 935.5,479.5C 930.489,479.334 925.489,479.501 920.5,480C 915.057,485.191 915.391,490.024 921.5,494.5C 925.634,495.485 929.968,495.818 934.5,495.5C 934.5,500.833 934.5,506.167 934.5,511.5C 931.941,511.198 929.607,511.532 927.5,512.5C 921.508,514.712 920.008,518.712 923,524.5C 923.708,525.381 924.542,526.047 925.5,526.5C 928.287,527.477 931.287,527.81 934.5,527.5C 934.5,533.167 934.5,538.833 934.5,544.5C 929.968,544.182 925.634,544.515 921.5,545.5C 918.147,546.512 916.48,548.846 916.5,552.5C 916.561,555.628 917.894,557.961 920.5,559.5C 924.97,560.486 929.637,560.819 934.5,560.5C 934.5,566.5 934.5,572.5 934.5,578.5C 931.615,578.194 928.948,578.527 926.5,579.5C 925.504,579.414 924.671,579.748 924,580.5C 920.288,585.415 920.788,589.748 925.5,593.5C 928.287,594.477 931.287,594.81 934.5,594.5C 934.5,600.5 934.5,606.5 934.5,612.5C 921.167,612.5 907.833,612.5 894.5,612.5C 894.5,517.167 894.5,421.833 894.5,326.5 Z"/></g>
<g><path style="opacity:1" fill="#443e99" d="M 894.5,326.5 C 894.5,326.167 894.5,325.833 894.5,325.5C 908.167,325.5 921.833,325.5 935.5,325.5C 935.5,332.167 935.5,338.833 935.5,345.5C 930.833,345.5 926.167,345.5 921.5,345.5C 925.634,344.515 929.968,344.182 934.5,344.5C 934.5,338.5 934.5,332.5 934.5,326.5C 921.167,326.5 907.833,326.5 894.5,326.5 Z"/></g>
<g><path style="opacity:1" fill="#373591" d="M 732.5,330.5 C 668.144,330.181 603.811,330.514 539.5,331.5C 539.918,330.778 540.584,330.278 541.5,330C 605.335,329.168 669.001,329.335 732.5,330.5 Z"/></g>
<g><path style="opacity:1" fill="#010c72" d="M 732.5,330.5 C 737.258,331.414 740.758,334.081 743,338.5C 743.667,382.833 743.667,427.167 743,471.5C 740.668,477.164 736.501,480.664 730.5,482C 717.167,482.333 703.833,482.667 690.5,483C 685.274,487.251 685.274,491.585 690.5,496C 705.167,496.667 719.833,496.667 734.5,496C 744.327,493.438 751.327,487.605 755.5,478.5C 756.927,476.852 757.76,474.852 758,472.5C 758.5,443.835 758.667,415.169 758.5,386.5C 798.5,386.5 838.5,386.5 878.5,386.5C 878.167,465.335 878.501,544.002 879.5,622.5C 880.401,623.29 881.068,624.29 881.5,625.5C 881.953,626.458 882.619,627.292 883.5,628C 904.337,628.829 925.004,628.663 945.5,627.5C 947.531,626.461 948.864,624.795 949.5,622.5C 950.499,544.002 950.833,465.335 950.5,386.5C 956.5,386.5 962.5,386.5 968.5,386.5C 968.168,446.669 968.501,506.669 969.5,566.5C 976.934,583.277 984.101,600.277 991,617.5C 994.451,623.353 998.785,624.019 1004,619.5C 1011.15,601.718 1018.48,584.052 1026,566.5C 1026.5,506.501 1026.67,446.501 1026.5,386.5C 1028.17,386.5 1029.83,386.5 1031.5,386.5C 1031.17,401.676 1031.5,416.676 1032.5,431.5C 1034.85,436.084 1038.52,437.418 1043.5,435.5C 1044.95,434.06 1045.95,432.394 1046.5,430.5C 1047.5,415.676 1047.83,400.676 1047.5,385.5C 1059.5,385.5 1071.5,385.5 1083.5,385.5C 1088.21,387.337 1091.87,390.337 1094.5,394.5C 1095.49,497.478 1095.82,600.478 1095.5,703.5C 918.5,703.5 741.5,703.5 564.5,703.5C 564.333,642.166 564.5,580.832 565,519.5C 569.882,527.383 576.382,533.549 584.5,538C 590.73,539.636 594.897,537.469 597,531.5C 598.116,523.79 599.449,516.123 601,508.5C 603.016,503.986 606.183,500.653 610.5,498.5C 622.316,497.918 633.983,497.251 645.5,496.5C 651.663,492.543 651.996,488.21 646.5,483.5C 634.34,482.34 622.007,482.173 609.5,483C 607.509,483.374 605.842,484.207 604.5,485.5C 597.629,488.201 592.462,492.868 589,499.5C 586.392,505.595 584.559,511.928 583.5,518.5C 581.142,516.976 579.309,514.976 578,512.5C 573.963,504.139 570.463,495.639 567.5,487C 565.404,485.234 563.071,483.901 560.5,483C 552.989,483.074 545.656,482.074 538.5,480C 535.469,477.441 533.302,474.274 532,470.5C 531.333,427.167 531.333,383.833 532,340.5C 533.111,336.243 535.611,333.243 539.5,331.5C 603.811,330.514 668.144,330.181 732.5,330.5 Z"/></g>
<g><path style="opacity:1" fill="#5d52a8" d="M 517.5,337.5 C 517.333,382.835 517.5,428.168 518,473.5C 518.608,475.154 519.108,476.821 519.5,478.5C 518.034,477.653 517.2,476.32 517,474.5C 516.168,428.665 516.335,382.998 517.5,337.5 Z"/></g>
<g><path style="opacity:1" fill="#b493da" d="M 756.5,334.5 C 757.29,335.609 757.79,336.942 758,338.5C 758.5,349.161 758.667,359.828 758.5,370.5C 757.646,358.663 756.979,346.663 756.5,334.5 Z"/></g>
<g><path style="opacity:1" fill="#e5b8f7" d="M 549.5,352.5 C 555.842,352.334 562.175,352.5 568.5,353C 573.143,355.072 574.643,358.572 573,363.5C 571.421,365.041 569.587,366.208 567.5,367C 561.833,367.667 556.167,367.667 550.5,367C 544.438,362.535 544.105,357.702 549.5,352.5 Z"/></g>
<g><path style="opacity:1" fill="#e6b9f8" d="M 589.5,352.5 C 621.835,352.333 654.168,352.5 686.5,353C 691.626,355.553 692.793,359.386 690,364.5C 688.581,365.46 687.081,366.293 685.5,367C 653.5,367.667 621.5,367.667 589.5,367C 584.174,361.999 584.174,357.165 589.5,352.5 Z"/></g>
<g><path style="opacity:1" fill="#e5b8f7" d="M 707.5,352.5 C 713.952,352.084 720.285,352.584 726.5,354C 731.07,359.574 730.07,363.908 723.5,367C 717.719,367.903 712.053,367.57 706.5,366C 703.606,363.091 702.773,359.591 704,355.5C 705.145,354.364 706.312,353.364 707.5,352.5 Z"/></g>
<g><path style="opacity:1" fill="#141579" d="M 1026.5,352.5 C 1028.72,352.178 1030.56,352.845 1032,354.5C 1032.5,359.823 1032.67,365.156 1032.5,370.5C 1030.5,370.5 1028.5,370.5 1026.5,370.5C 1026.5,364.5 1026.5,358.5 1026.5,352.5 Z"/></g>
<g><path style="opacity:1" fill="#393592" d="M 1010.5,330.5 C 1011.49,339.318 1011.83,348.318 1011.5,357.5C 1002.17,357.5 992.833,357.5 983.5,357.5C 983.175,349.648 983.508,341.982 984.5,334.5C 984.5,341.833 984.5,349.167 984.5,356.5C 993.167,356.5 1001.83,356.5 1010.5,356.5C 1010.5,347.833 1010.5,339.167 1010.5,330.5 Z"/></g>
<g><path style="opacity:1" fill="#433d99" d="M 920.5,359.5 C 925.5,359.5 930.5,359.5 935.5,359.5C 935.5,366.167 935.5,372.833 935.5,379.5C 932.5,379.5 929.5,379.5 926.5,379.5C 928.948,378.527 931.615,378.194 934.5,378.5C 934.5,372.5 934.5,366.5 934.5,360.5C 929.637,360.819 924.97,360.486 920.5,359.5 Z"/></g>
<g><path style="opacity:1" fill="#947bc8" d="M 1046.5,353.5 C 1047.49,358.975 1047.82,364.642 1047.5,370.5C 1059.68,370.172 1071.68,370.505 1083.5,371.5C 1071.17,371.5 1058.83,371.5 1046.5,371.5C 1046.5,365.5 1046.5,359.5 1046.5,353.5 Z"/></g>
<g><path style="opacity:1" fill="#6758ad" d="M 983.5,371.5 C 993.167,371.5 1002.83,371.5 1012.5,371.5C 1012.5,376.167 1012.5,380.833 1012.5,385.5C 1002.83,385.5 993.167,385.5 983.5,385.5C 983.5,380.833 983.5,376.167 983.5,371.5 Z"/></g>
<g><path style="opacity:1" fill="#020e73" d="M 984.5,372.5 C 993.5,372.5 1002.5,372.5 1011.5,372.5C 1011.5,376.5 1011.5,380.5 1011.5,384.5C 1002.5,384.5 993.5,384.5 984.5,384.5C 984.5,380.5 984.5,376.5 984.5,372.5 Z"/></g>
<g><path style="opacity:1" fill="#b694dc" d="M 637.5,387.5 C 607.789,387.183 578.123,387.516 548.5,388.5C 548.611,387.883 548.944,387.383 549.5,387C 579.003,386.17 608.336,386.336 637.5,387.5 Z"/></g>
<g><path style="opacity:1" fill="#b292da" d="M 690.5,387.5 C 679.116,387.21 667.783,387.543 656.5,388.5C 656.611,387.883 656.944,387.383 657.5,387C 668.674,386.174 679.674,386.341 690.5,387.5 Z"/></g>
<g><path style="opacity:1" fill="#b594db" d="M 758.5,385.5 C 758.5,385.833 758.5,386.167 758.5,386.5C 758.667,415.169 758.5,443.835 758,472.5C 757.76,474.852 756.927,476.852 755.5,478.5C 755.933,475.834 756.433,473.168 757,470.5C 757.168,441.997 757.668,413.664 758.5,385.5 Z"/></g>
<g><path style="opacity:1" fill="#2a2c8a" d="M 758.5,386.5 C 758.5,386.167 758.5,385.833 758.5,385.5C 798.833,385.5 839.167,385.5 879.5,385.5C 879.5,464.5 879.5,543.5 879.5,622.5C 878.501,544.002 878.167,465.335 878.5,386.5C 838.5,386.5 798.5,386.5 758.5,386.5 Z"/></g>
<g><path style="opacity:1" fill="#6f5fb3" d="M 969.5,385.5 C 962.978,385.177 956.645,385.51 950.5,386.5C 950.833,465.335 950.499,544.002 949.5,622.5C 949.5,543.167 949.5,463.833 949.5,384.5C 956.354,384.176 963.021,384.509 969.5,385.5 Z"/></g>
<g><path style="opacity:1" fill="#7b68b9" d="M 1083.5,385.5 C 1071.5,385.5 1059.5,385.5 1047.5,385.5C 1047.83,400.676 1047.5,415.676 1046.5,430.5C 1046.5,415.167 1046.5,399.833 1046.5,384.5C 1059.01,384.171 1071.34,384.505 1083.5,385.5 Z"/></g>
<g><path style="opacity:1" fill="#f0c0fe" d="M 637.5,387.5 C 641.622,389.077 643.122,392.077 642,396.5C 641.722,397.416 641.222,398.082 640.5,398.5C 639.527,398.987 638.527,399.487 637.5,400C 608.502,400.5 579.502,400.667 550.5,400.5C 547.126,399.309 545.46,396.809 545.5,393C 545.522,390.817 546.522,389.317 548.5,388.5C 578.123,387.516 607.789,387.183 637.5,387.5 Z"/></g>
<g><path style="opacity:1" fill="#e8baf9" d="M 690.5,387.5 C 696.168,390.354 696.834,394.187 692.5,399C 691.328,399.419 690.328,400.085 689.5,401C 684.333,401.167 679.167,401.333 674,401.5C 668.061,401.623 662.228,401.123 656.5,400C 654.951,397.902 653.951,395.568 653.5,393C 653.522,390.817 654.522,389.317 656.5,388.5C 667.783,387.543 679.116,387.21 690.5,387.5 Z"/></g>
<g><path style="opacity:1" fill="#e8baf9" d="M 710.5,386.5 C 715.959,386.103 721.292,386.603 726.5,388C 730.654,392.399 730.321,396.399 725.5,400C 720.167,400.667 714.833,400.667 709.5,400C 705.204,394.963 705.537,390.463 710.5,386.5 Z"/></g>
<g><path style="opacity:1" fill="#443e99" d="M 925.5,393.5 C 928.833,393.5 932.167,393.5 935.5,393.5C 935.5,400.167 935.5,406.833 935.5,413.5C 930.833,413.5 926.167,413.5 921.5,413.5C 925.634,412.515 929.968,412.182 934.5,412.5C 934.5,406.5 934.5,400.5 934.5,394.5C 931.287,394.81 928.287,394.477 925.5,393.5 Z"/></g>
<g><path style="opacity:1" fill="#7a67b9" d="M 640.5,398.5 C 640.423,399.75 639.756,400.583 638.5,401C 608.997,401.83 579.664,401.664 550.5,400.5C 579.502,400.667 608.502,400.5 637.5,400C 638.527,399.487 639.527,398.987 640.5,398.5 Z"/></g>
<g><path style="opacity:1" fill="#5d51a8" d="M 1011.5,400.5 C 1002.5,400.5 993.5,400.5 984.5,400.5C 984.5,452.167 984.5,503.833 984.5,555.5C 993.5,555.5 1002.5,555.5 1011.5,555.5C 1002.35,556.494 993.015,556.827 983.5,556.5C 983.5,504.167 983.5,451.833 983.5,399.5C 993.015,399.173 1002.35,399.506 1011.5,400.5 Z"/></g>
<g><path style="opacity:1" fill="#010d72" d="M 1011.5,400.5 C 1011.5,452.167 1011.5,503.833 1011.5,555.5C 1002.5,555.5 993.5,555.5 984.5,555.5C 984.5,503.833 984.5,452.167 984.5,400.5C 993.5,400.5 1002.5,400.5 1011.5,400.5 Z"/></g>
<g><path style="opacity:1" fill="#413b96" d="M 1094.5,394.5 C 1095.22,394.918 1095.72,395.584 1096,396.5C 1096.5,499.166 1096.67,601.833 1096.5,704.5C 918.999,704.833 741.666,704.5 564.5,703.5C 741.5,703.5 918.5,703.5 1095.5,703.5C 1095.82,600.478 1095.49,497.478 1094.5,394.5 Z"/></g>
<g><path style="opacity:1" fill="#3b3894" d="M 1026.5,386.5 C 1028.26,385.539 1030.26,385.205 1032.5,385.5C 1032.5,400.833 1032.5,416.167 1032.5,431.5C 1031.5,416.676 1031.17,401.676 1031.5,386.5C 1029.83,386.5 1028.17,386.5 1026.5,386.5 Z"/></g>
<g><path style="opacity:1" fill="#ab8dd5" d="M 724.5,416.5 C 704.454,416.19 684.454,416.524 664.5,417.5C 664.611,416.883 664.944,416.383 665.5,416C 685.338,415.171 705.004,415.338 724.5,416.5 Z"/></g>
<g><path style="opacity:1" fill="#e5b8f7" d="M 549.5,415.5 C 557.84,415.334 566.173,415.5 574.5,416C 579.143,418.072 580.643,421.572 579,426.5C 577.926,427.618 576.76,428.618 575.5,429.5C 567.187,430.665 558.853,430.832 550.5,430C 544.438,425.535 544.105,420.702 549.5,415.5 Z"/></g>
<g><path style="opacity:1" fill="#ecbdfb" d="M 645.5,429.5 C 628.12,429.806 610.786,429.472 593.5,428.5C 591.055,425.05 590.888,421.383 593,417.5C 593.75,416.874 594.584,416.374 595.5,416C 603.667,415.833 611.833,415.667 620,415.5C 628.93,415.36 637.763,415.86 646.5,417C 650.714,421.639 650.381,425.805 645.5,429.5 Z"/></g>
<g><path style="opacity:1" fill="#eabbfa" d="M 724.5,416.5 C 729.662,418.697 730.829,422.364 728,427.5C 726.581,428.46 725.081,429.293 723.5,430C 704.167,430.667 684.833,430.667 665.5,430C 660.779,425.934 660.446,421.767 664.5,417.5C 684.454,416.524 704.454,416.19 724.5,416.5 Z"/></g>
<g><path style="opacity:1" fill="#4c439d" d="M 920.5,427.5 C 925.5,427.5 930.5,427.5 935.5,427.5C 935.5,434.167 935.5,440.833 935.5,447.5C 932.167,447.5 928.833,447.5 925.5,447.5C 928.287,446.523 931.287,446.19 934.5,446.5C 934.5,440.5 934.5,434.5 934.5,428.5C 929.637,428.819 924.97,428.486 920.5,427.5 Z"/></g>
<g><path style="opacity:1" fill="#8972c1" d="M 593.5,428.5 C 610.786,429.472 628.12,429.806 645.5,429.5C 628.672,430.662 611.672,430.828 594.5,430C 593.944,429.617 593.611,429.117 593.5,428.5 Z"/></g>
<g><path style="opacity:1" fill="#af8fd7" d="M 700.5,444.5 C 690.781,444.218 681.114,444.551 671.5,445.5C 671.611,444.883 671.944,444.383 672.5,444C 682.009,443.176 691.343,443.342 700.5,444.5 Z"/></g>
<g><path style="opacity:1" fill="#ecbdfb" d="M 615.5,456.5 C 593.879,457.478 572.212,457.811 550.5,457.5C 547.511,456.059 545.844,453.559 545.5,450C 546.024,447.473 547.358,445.473 549.5,444C 570.833,443.333 592.167,443.333 613.5,444C 619.317,447.401 619.984,451.568 615.5,456.5 Z"/></g>
<g><path style="opacity:1" fill="#e9bbf9" d="M 654.5,456.5 C 647.891,457.423 641.224,457.756 634.5,457.5C 630.35,454.287 629.517,450.287 632,445.5C 632.75,444.874 633.584,444.374 634.5,444C 640.5,443.333 646.5,443.333 652.5,444C 658.317,447.401 658.984,451.568 654.5,456.5 Z"/></g>
<g><path style="opacity:1" fill="#eebffc" d="M 700.5,444.5 C 703.704,445.378 705.37,447.545 705.5,451C 705.137,453.192 704.137,455.026 702.5,456.5C 692.167,457.833 681.833,457.833 671.5,456.5C 669.859,454.713 668.859,452.546 668.5,450C 668.522,447.817 669.522,446.317 671.5,445.5C 681.114,444.551 690.781,444.218 700.5,444.5 Z"/></g>
<g><path style="opacity:1" fill="#7c69ba" d="M 615.5,456.5 C 615.389,457.117 615.056,457.617 614.5,458C 592.996,458.829 571.663,458.663 550.5,457.5C 572.212,457.811 593.879,457.478 615.5,456.5 Z"/></g>
<g><path style="opacity:1" fill="#7362b4" d="M 654.5,456.5 C 654.389,457.117 654.056,457.617 653.5,458C 646.986,458.82 640.653,458.653 634.5,457.5C 641.224,457.756 647.891,457.423 654.5,456.5 Z"/></g>
<g><path style="opacity:1" fill="#7563b6" d="M 671.5,456.5 C 681.833,457.833 692.167,457.833 702.5,456.5C 702.389,457.117 702.056,457.617 701.5,458C 691.833,458.667 682.167,458.667 672.5,458C 671.944,457.617 671.611,457.117 671.5,456.5 Z"/></g>
<g><path style="opacity:1" fill="#3b3894" d="M 950.5,386.5 C 956.645,385.51 962.978,385.177 969.5,385.5C 969.5,445.833 969.5,506.167 969.5,566.5C 968.501,506.669 968.168,446.669 968.5,386.5C 962.5,386.5 956.5,386.5 950.5,386.5 Z"/></g>
<g><path style="opacity:1" fill="#e9bbfa" d="M 769.5,519.5 C 750.5,537.833 731.833,556.5 713.5,575.5C 703.005,585.828 692.339,595.994 681.5,606C 673.025,606.511 670.191,602.678 673,594.5C 711.833,555.667 750.667,516.833 789.5,478C 797.602,475.105 801.435,477.938 801,486.5C 790.661,497.672 780.161,508.672 769.5,519.5 Z"/></g>
<g><path style="opacity:1" fill="#b895dd" d="M 646.5,483.5 C 632.37,482.947 618.37,483.613 604.5,485.5C 605.842,484.207 607.509,483.374 609.5,483C 622.007,482.173 634.34,482.34 646.5,483.5 Z"/></g>
<g><path style="opacity:1" fill="#3a3794" d="M 921.5,494.5 C 926.167,494.5 930.833,494.5 935.5,494.5C 935.5,500.5 935.5,506.5 935.5,512.5C 932.833,512.5 930.167,512.5 927.5,512.5C 929.607,511.532 931.941,511.198 934.5,511.5C 934.5,506.167 934.5,500.833 934.5,495.5C 929.968,495.818 925.634,495.485 921.5,494.5 Z"/></g>
<g><path style="opacity:1" fill="#5f53a9" d="M 645.5,496.5 C 633.983,497.251 622.316,497.918 610.5,498.5C 611.263,497.732 612.263,497.232 613.5,497C 624.161,496.5 634.828,496.333 645.5,496.5 Z"/></g>
<g><path style="opacity:1" fill="#1f2283" d="M 540.5,496.5 C 543.5,496.5 546.5,496.5 549.5,496.5C 549.5,589.5 549.5,682.5 549.5,775.5C 548.501,683.001 548.167,590.335 548.5,497.5C 545.615,497.806 542.948,497.473 540.5,496.5 Z"/></g>
<g><path style="opacity:1" fill="#4e449e" d="M 925.5,526.5 C 928.833,526.5 932.167,526.5 935.5,526.5C 935.5,532.833 935.5,539.167 935.5,545.5C 930.833,545.5 926.167,545.5 921.5,545.5C 925.634,544.515 929.968,544.182 934.5,544.5C 934.5,538.833 934.5,533.167 934.5,527.5C 931.287,527.81 928.287,527.477 925.5,526.5 Z"/></g>
<g><path style="opacity:1" fill="#eabcfa" d="M 798.5,531.5 C 806.868,530.061 810.368,533.395 809,541.5C 791.5,559 774,576.5 756.5,594C 750.285,595.435 746.951,592.935 746.5,586.5C 746.622,584.209 747.455,582.209 749,580.5C 765.49,564.219 781.99,547.886 798.5,531.5 Z"/></g>
<g><path style="opacity:1" fill="#2a2686" d="M 769.5,519.5 C 752.087,538.415 734.087,556.915 715.5,575C 714.906,575.464 714.239,575.631 713.5,575.5C 731.833,556.5 750.5,537.833 769.5,519.5 Z"/></g>
<g><path style="opacity:1" fill="#47409b" d="M 920.5,559.5 C 925.5,559.5 930.5,559.5 935.5,559.5C 935.5,566.167 935.5,572.833 935.5,579.5C 932.5,579.5 929.5,579.5 926.5,579.5C 928.948,578.527 931.615,578.194 934.5,578.5C 934.5,572.5 934.5,566.5 934.5,560.5C 929.637,560.819 924.97,560.486 920.5,559.5 Z"/></g>
<g><path style="opacity:1" fill="#e7baf9" d="M 590.5,567.5 C 599.688,567.878 602.854,572.544 600,581.5C 596.71,585.817 592.71,586.484 588,583.5C 586.566,579.594 586.233,575.594 587,571.5C 587.69,569.65 588.856,568.316 590.5,567.5 Z"/></g>
<g><path style="opacity:1" fill="#6658ad" d="M 1007.5,572.5 C 1001.17,571.167 994.833,571.167 988.5,572.5C 987.957,572.44 987.624,572.107 987.5,571.5C 994.5,570.167 1001.5,570.167 1008.5,571.5C 1008.38,572.107 1008.04,572.44 1007.5,572.5 Z"/></g>
<g><path style="opacity:1" fill="#0e1276" d="M 1007.5,572.5 C 1004.49,580.2 1001.32,587.867 998,595.5C 994.729,587.85 991.563,580.183 988.5,572.5C 994.833,571.167 1001.17,571.167 1007.5,572.5 Z"/></g>
<g><path style="opacity:1" fill="#eebffc" d="M 590.5,592.5 C 594.35,592.178 597.517,593.511 600,596.5C 600.667,625.5 600.667,654.5 600,683.5C 597.487,687.212 593.987,688.378 589.5,687C 588.299,686.097 587.465,684.931 587,683.5C 586.333,654.5 586.333,625.5 587,596.5C 588.376,595.295 589.542,593.962 590.5,592.5 Z"/></g>
<g><path style="opacity:1" fill="#6b5aaf" d="M 894.5,325.5 C 894.5,325.833 894.5,326.167 894.5,326.5C 894.5,421.833 894.5,517.167 894.5,612.5C 907.833,612.5 921.167,612.5 934.5,612.5C 934.5,606.5 934.5,600.5 934.5,594.5C 931.287,594.81 928.287,594.477 925.5,593.5C 928.833,593.5 932.167,593.5 935.5,593.5C 935.5,600.167 935.5,606.833 935.5,613.5C 921.5,613.5 907.5,613.5 893.5,613.5C 893.167,517.332 893.501,421.332 894.5,325.5 Z"/></g>
<g><path style="opacity:1" fill="#6c5db0" d="M 881.5,625.5 C 882.756,625.461 883.756,625.961 884.5,627C 904.831,627.5 925.164,627.667 945.5,627.5C 925.004,628.663 904.337,628.829 883.5,628C 882.619,627.292 881.953,626.458 881.5,625.5 Z"/></g>
<g><path style="opacity:1" fill="#9c81cc" d="M 1096.5,773.5 C 1096.5,755.5 1096.5,737.5 1096.5,719.5C 919.167,719.5 741.833,719.5 564.5,719.5C 564.5,738.167 564.5,756.833 564.5,775.5C 563.503,756.674 563.17,737.674 563.5,718.5C 741.5,718.5 919.5,718.5 1097.5,718.5C 1097.83,737.008 1097.5,755.341 1096.5,773.5 Z"/></g>
<g><path style="opacity:1" fill="#020d72" d="M 1096.5,773.5 C 1095.43,781.245 1091.09,786.245 1083.5,788.5C 914.501,789.667 745.501,789.833 576.5,789C 570.55,786.218 566.55,781.718 564.5,775.5C 564.5,756.833 564.5,738.167 564.5,719.5C 741.833,719.5 919.167,719.5 1096.5,719.5C 1096.5,737.5 1096.5,755.5 1096.5,773.5 Z"/></g>
<g><path style="opacity:1" fill="#e9bbfa" d="M 820.5,734.5 C 829.502,733.111 837.002,735.777 843,742.5C 849.547,756.919 845.381,767.086 830.5,773C 819.077,774.366 811.577,769.533 808,758.5C 806.638,747.556 810.804,739.556 820.5,734.5 Z"/></g>
<g><path style="opacity:1" fill="#1b197c" d="M 823.5,749.5 C 830.997,748.804 832.997,751.637 829.5,758C 822.781,758.726 820.781,755.893 823.5,749.5 Z"/></g>
<g><path style="opacity:1" fill="#d3aaec" d="M 567.5,800.5 C 569.655,800.372 571.655,800.872 573.5,802C 633.668,802.167 693.668,802.667 753.5,803.5C 693.833,803.5 634.167,803.5 574.5,803.5C 571.843,803.065 569.509,802.065 567.5,800.5 Z"/></g>
<g><path style="opacity:1" fill="#5a4fa6" d="M 574.5,803.5 C 634.167,803.5 693.833,803.5 753.5,803.5C 753.667,814.838 753.5,826.172 753,837.5C 752.722,838.416 752.222,839.082 751.5,839.5C 752.436,827.871 752.77,816.204 752.5,804.5C 692.998,804.832 633.664,804.499 574.5,803.5 Z"/></g>
<g><path style="opacity:1" fill="#6759ad" d="M 885.5,804.5 C 846.5,804.5 807.5,804.5 768.5,804.5C 768.828,815.346 768.494,826.013 767.5,836.5C 767.5,825.5 767.5,814.5 767.5,803.5C 807.004,803.168 846.337,803.501 885.5,804.5 Z"/></g>
<g><path style="opacity:1" fill="#010c72" d="M 885.5,804.5 C 885.334,814.839 885.5,825.172 886,835.5C 886.862,839.62 888.029,843.62 889.5,847.5C 867.686,849.163 845.686,850.163 823.5,850.5C 818.085,855.403 818.418,860.069 824.5,864.5C 858.687,865.193 893.02,865.86 927.5,866.5C 935.739,869.75 941.405,875.417 944.5,883.5C 866.002,884.499 787.335,884.833 708.5,884.5C 710.992,875.341 716.659,869.007 725.5,865.5C 730.668,865.066 735.668,864.4 740.5,863.5C 755.864,860.803 764.864,851.803 767.5,836.5C 768.494,826.013 768.828,815.346 768.5,804.5C 807.5,804.5 846.5,804.5 885.5,804.5 Z"/></g>
<g><path style="opacity:1" fill="#836ebe" d="M 1085.5,803.5 C 1024,804.499 962.336,804.832 900.5,804.5C 900.254,816.197 900.587,827.864 901.5,839.5C 900.732,838.737 900.232,837.737 900,836.5C 899.5,825.505 899.333,814.505 899.5,803.5C 961.5,803.5 1023.5,803.5 1085.5,803.5 Z"/></g>
<g><path style="opacity:1" fill="#8971c1" d="M 740.5,848.5 C 736.081,849.972 731.414,850.638 726.5,850.5C 730.881,848.789 735.547,848.123 740.5,848.5 Z"/></g>
<g><path style="opacity:1" fill="#8b75c3" d="M 889.5,847.5 C 890.404,848.209 890.737,849.209 890.5,850.5C 868.167,850.5 845.833,850.5 823.5,850.5C 845.686,850.163 867.686,849.163 889.5,847.5 Z"/></g>
<g><path style="opacity:1" fill="#6959ae" d="M 740.5,863.5 C 735.668,864.4 730.668,865.066 725.5,865.5C 726.263,864.732 727.263,864.232 728.5,864C 732.486,863.501 736.486,863.334 740.5,863.5 Z"/></g>
<g><path style="opacity:1" fill="#49429d" d="M 824.5,864.5 C 858.168,864.333 891.835,864.5 925.5,865C 926.416,865.278 927.082,865.778 927.5,866.5C 893.02,865.86 858.687,865.193 824.5,864.5 Z"/></g>
<g><path style="opacity:1" fill="#695baf" d="M 944.5,883.5 C 945.043,883.56 945.376,883.893 945.5,884.5C 866.334,885.832 787.334,885.832 708.5,884.5C 787.335,884.833 866.002,884.499 944.5,883.5 Z"/></g>
<g><path style="opacity:1" fill="#eabcfa" d="M 708.5,931.5 C 720.775,929.286 726.608,934.286 726,946.5C 722.551,952.544 717.385,954.71 710.5,953C 704.829,948.47 702.996,942.637 705,935.5C 706.376,934.295 707.542,932.962 708.5,931.5 Z"/></g>
<g><path style="opacity:1" fill="#eebffc" d="M 651.5,952.5 C 651.368,970.021 652.035,987.354 653.5,1004.5C 653.201,1006.6 653.534,1008.6 654.5,1010.5C 659.913,1008.3 665.246,1005.8 670.5,1003C 676.986,997.556 679.986,990.556 679.5,982C 678.696,972.178 677.03,962.511 674.5,953C 674.737,948.539 677.07,945.872 681.5,945C 687.614,943.306 692.281,945.139 695.5,950.5C 696.7,956.254 697.7,961.921 698.5,967.5C 700.875,985.29 702.542,1003.29 703.5,1021.5C 703.927,1025.82 704.261,1030.16 704.5,1034.5C 705.909,1045.11 706.575,1055.78 706.5,1066.5C 704.668,1073.17 700.334,1076 693.5,1075C 687.819,1069.8 685.153,1063.3 685.5,1055.5C 685.799,1047.6 685.132,1039.94 683.5,1032.5C 683.243,1028.11 682.576,1023.77 681.5,1019.5C 671.387,1024.12 662.221,1030.12 654,1037.5C 654.333,1047.17 654.667,1056.83 655,1066.5C 652.041,1074.23 646.541,1077.06 638.5,1075C 636.383,1073.27 634.883,1071.1 634,1068.5C 633.666,1051.82 633.166,1035.16 632.5,1018.5C 631.962,996.162 631.296,973.829 630.5,951.5C 631.683,947.463 634.35,945.129 638.5,944.5C 642.074,944.969 645.408,946.136 648.5,948C 650.439,948.908 651.439,950.408 651.5,952.5 Z"/></g>
<g><path style="opacity:1" fill="#9d81cd" d="M 793.5,959.5 C 789.019,959.425 784.686,960.092 780.5,961.5C 784.548,958.62 788.881,957.954 793.5,959.5 Z"/></g>
<g><path style="opacity:1" fill="#edbefc" d="M 793.5,959.5 C 797.672,961.158 801.172,963.825 804,967.5C 810.436,978.642 813.936,990.642 814.5,1003.5C 816.073,1023.12 816.74,1042.79 816.5,1062.5C 811.896,1072.22 805.396,1073.89 797,1067.5C 794.944,1053.62 793.777,1039.62 793.5,1025.5C 792.963,1012.65 791.963,999.982 790.5,987.5C 789.391,983.971 787.558,983.638 785,986.5C 781.264,991.793 778.264,997.46 776,1003.5C 768.473,1024.27 763.14,1045.61 760,1067.5C 754.955,1073.73 748.455,1075.89 740.5,1074C 735.904,1069.52 734.237,1064.02 735.5,1057.5C 735.71,1048.95 735.043,1040.62 733.5,1032.5C 732.22,1014.52 731.22,996.519 730.5,978.5C 730.5,974.167 730.5,969.833 730.5,965.5C 732.634,962.054 735.801,960.387 740,960.5C 747.278,960.993 750.945,964.993 751,972.5C 752.093,979.821 753.093,987.154 754,994.5C 756.941,987.705 760.274,981.038 764,974.5C 768.509,968.815 774.009,964.482 780.5,961.5C 784.686,960.092 789.019,959.425 793.5,959.5 Z"/></g>
<g><path style="opacity:1" fill="#efc0fd" d="M 728.5,967.5 C 728.5,1001.5 728.5,1035.5 728.5,1069.5C 724.683,1076.52 719.016,1078.36 711.5,1075C 709.84,1073.51 708.84,1071.68 708.5,1069.5C 708.828,1058.65 708.494,1047.99 707.5,1037.5C 707.271,1012.82 707.604,988.154 708.5,963.5C 712.604,961.622 716.938,961.122 721.5,962C 724.595,962.935 726.929,964.769 728.5,967.5 Z"/></g>
<g><path style="opacity:1" fill="#977cca" d="M 695.5,950.5 C 698.109,955.747 699.109,961.414 698.5,967.5C 697.7,961.921 696.7,956.254 695.5,950.5 Z"/></g>
<g><path style="opacity:1" fill="#6b5baf" d="M 651.5,952.5 C 652.777,969.652 653.444,986.986 653.5,1004.5C 652.035,987.354 651.368,970.021 651.5,952.5 Z"/></g>
<g><path style="opacity:1" fill="#eebffd" d="M 1013.5,970.5 C 1014.44,973.269 1015.6,975.936 1017,978.5C 1017.33,990.167 1017.67,1001.83 1018,1013.5C 1018.53,1017.7 1019.36,1021.7 1020.5,1025.5C 1023.2,1039.7 1024.03,1054.03 1023,1068.5C 1019.26,1072.26 1014.76,1073.43 1009.5,1072C 1006.75,1070.11 1005.09,1067.61 1004.5,1064.5C 1004.09,1055.43 1003.09,1046.43 1001.5,1037.5C 1000.48,1037.86 999.811,1038.52 999.5,1039.5C 993.759,1050.46 986.426,1060.3 977.5,1069C 970.152,1074.06 963.319,1073.56 957,1067.5C 951.305,1056.78 949.972,1045.45 953,1033.5C 958.393,1008.87 969.893,987.704 987.5,970C 996.376,965.192 1005.04,965.359 1013.5,970.5 Z"/></g>
<g><path style="opacity:1" fill="#eebffc" d="M 947.5,994.5 C 943.154,994.334 938.821,994.501 934.5,995C 933.29,996.039 932.29,997.206 931.5,998.5C 930.542,998.953 929.708,999.619 929,1000.5C 927.656,1005.18 926.323,1009.85 925,1014.5C 923.742,1028.14 922.742,1041.81 922,1055.5C 921.368,1060.6 920.368,1065.6 919,1070.5C 913.247,1075.17 907.081,1075.67 900.5,1072C 897.532,1067.31 895.865,1062.14 895.5,1056.5C 895.749,1052.54 895.082,1048.88 893.5,1045.5C 892.021,1035.86 890.688,1026.19 889.5,1016.5C 888.617,1008.3 887.283,1000.3 885.5,992.5C 885.274,987.438 885.608,982.438 886.5,977.5C 886.953,976.542 887.619,975.708 888.5,975C 895.604,972.962 901.271,974.796 905.5,980.5C 905.189,984.68 905.855,988.68 907.5,992.5C 908.298,992.043 908.631,991.376 908.5,990.5C 913.03,981.137 920.363,975.303 930.5,973C 937.5,972.333 944.5,972.333 951.5,973C 959.53,978.241 960.53,984.575 954.5,992C 952.235,993.118 949.901,993.951 947.5,994.5 Z"/></g>
<g><path style="opacity:1" fill="#efbffd" d="M 837.5,982.5 C 837.473,994.359 838.14,1006.03 839.5,1017.5C 838.888,1028.75 839.888,1039.75 842.5,1050.5C 844.459,1049.25 845.959,1047.59 847,1045.5C 849.427,1040.31 852.094,1035.31 855,1030.5C 856.975,1026.04 857.808,1021.37 857.5,1016.5C 858.309,1014.71 858.809,1012.71 859,1010.5C 859.5,999.839 859.667,989.172 859.5,978.5C 866.167,978.5 872.833,978.5 879.5,978.5C 879.333,999.836 879.5,1021.17 880,1042.5C 880.186,1045.04 880.686,1047.37 881.5,1049.5C 881.41,1052.15 882.076,1054.49 883.5,1056.5C 885.023,1061.07 886.357,1065.74 887.5,1070.5C 885.774,1074.38 882.774,1076.88 878.5,1078C 869.068,1078.75 864.068,1074.25 863.5,1064.5C 859.869,1065.61 856.869,1067.77 854.5,1071C 851.7,1072.48 849.034,1074.15 846.5,1076C 839.755,1077.7 833.922,1076.2 829,1071.5C 825.927,1066.69 823.427,1061.69 821.5,1056.5C 820.765,1050.09 819.598,1043.76 818,1037.5C 817.501,1032.18 817.334,1026.84 817.5,1021.5C 817.333,1008.16 817.5,994.829 818,981.5C 819.039,980.756 819.539,979.756 819.5,978.5C 819.611,977.883 819.944,977.383 820.5,977C 827.604,974.962 833.271,976.796 837.5,982.5 Z"/></g>
<g><path style="opacity:1" fill="#9a7ecb" d="M 886.5,977.5 C 885.608,982.438 885.274,987.438 885.5,992.5C 884.352,988.019 884.185,983.352 885,978.5C 885.383,977.944 885.883,977.611 886.5,977.5 Z"/></g>
<g><path style="opacity:1" fill="#836ebe" d="M 630.5,951.5 C 631.296,973.829 631.962,996.162 632.5,1018.5C 631.094,999.011 630.094,979.345 629.5,959.5C 629.503,956.645 629.836,953.978 630.5,951.5 Z"/></g>
<g><path style="opacity:1" fill="#302f8d" d="M 706.5,976.5 C 706.17,997.007 706.503,1017.34 707.5,1037.5C 707.665,1040.85 707.498,1044.18 707,1047.5C 706.386,1042.99 705.552,1038.65 704.5,1034.5C 704.261,1030.16 703.927,1025.82 703.5,1021.5C 704.302,1022.95 704.802,1024.62 705,1026.5C 705.168,1009.66 705.668,992.995 706.5,976.5 Z"/></g>
<g><path style="opacity:1" fill="#6757ac" d="M 905.5,980.5 C 906.288,983.887 907.288,987.22 908.5,990.5C 908.631,991.376 908.298,992.043 907.5,992.5C 905.855,988.68 905.189,984.68 905.5,980.5 Z"/></g>
<g><path style="opacity:1" fill="#b190d9" d="M 708.5,963.5 C 707.604,988.154 707.271,1012.82 707.5,1037.5C 706.503,1017.34 706.17,997.007 706.5,976.5C 706.884,971.99 707.551,967.657 708.5,963.5 Z"/></g>
<g><path style="opacity:1" fill="#6456ab" d="M 837.5,982.5 C 838.86,993.974 839.527,1005.64 839.5,1017.5C 838.14,1006.03 837.473,994.359 837.5,982.5 Z"/></g>
<g><path style="opacity:1" fill="#7864b6" d="M 947.5,994.5 C 943.688,995.324 939.688,995.824 935.5,996C 934.529,997.481 933.196,998.315 931.5,998.5C 932.29,997.206 933.29,996.039 934.5,995C 938.821,994.501 943.154,994.334 947.5,994.5 Z"/></g>
<g><path style="opacity:1" fill="#9178c6" d="M 819.5,978.5 C 819.539,979.756 819.039,980.756 818,981.5C 817.5,994.829 817.333,1008.16 817.5,1021.5C 816.505,1008.68 816.171,995.677 816.5,982.5C 816.738,980.596 817.738,979.262 819.5,978.5 Z"/></g>
<g><path style="opacity:1" fill="#6857ad" d="M 885.5,992.5 C 887.283,1000.3 888.617,1008.3 889.5,1016.5C 887.108,1008.81 885.774,1000.81 885.5,992.5 Z"/></g>
<g><path style="opacity:1" fill="#6758ad" d="M 790.5,987.5 C 791.963,999.982 792.963,1012.65 793.5,1025.5C 792.698,1024.05 792.198,1022.38 792,1020.5C 791.342,1009.5 790.842,998.504 790.5,987.5 Z"/></g>
<g><path style="opacity:1" fill="#a587d1" d="M 1013.5,970.5 C 1015.56,972.41 1017.06,974.743 1018,977.5C 1018.14,993.55 1018.97,1009.55 1020.5,1025.5C 1019.36,1021.7 1018.53,1017.7 1018,1013.5C 1017.67,1001.83 1017.33,990.167 1017,978.5C 1015.6,975.936 1014.44,973.269 1013.5,970.5 Z"/></g>
<g><path style="opacity:1" fill="#352d8b" d="M 992.5,998.5 C 993.376,998.369 994.043,998.702 994.5,999.5C 989.744,1011.41 983.911,1022.75 977,1033.5C 976.986,1031.53 977.319,1029.53 978,1027.5C 982.356,1017.6 987.189,1007.93 992.5,998.5 Z"/></g>
<g><path style="opacity:1" fill="#be9be0" d="M 881.5,1049.5 C 880.686,1047.37 880.186,1045.04 880,1042.5C 879.5,1021.17 879.333,999.836 879.5,978.5C 872.833,978.5 866.167,978.5 859.5,978.5C 859.667,989.172 859.5,999.839 859,1010.5C 858.809,1012.71 858.309,1014.71 857.5,1016.5C 858.327,1003.52 858.661,990.518 858.5,977.5C 865.833,977.5 873.167,977.5 880.5,977.5C 880.262,1001.51 880.595,1025.51 881.5,1049.5 Z"/></g>
<g><path style="opacity:1" fill="#7160b3" d="M 730.5,965.5 C 730.5,969.833 730.5,974.167 730.5,978.5C 729.511,983.975 729.178,989.642 729.5,995.5C 729.831,1020.34 729.498,1045.01 728.5,1069.5C 728.5,1035.5 728.5,1001.5 728.5,967.5C 729.167,966.833 729.833,966.167 730.5,965.5 Z"/></g>
<g><path style="opacity:1" fill="#2b2a89" d="M 730.5,978.5 C 731.22,996.519 732.22,1014.52 733.5,1032.5C 733.5,1036.5 733.5,1040.5 733.5,1044.5C 732.204,1028.16 730.87,1011.83 729.5,995.5C 729.178,989.642 729.511,983.975 730.5,978.5 Z"/></g>
<g><path style="opacity:1" fill="#2b2988" d="M 816.5,982.5 C 816.171,995.677 816.505,1008.68 817.5,1021.5C 817.334,1026.84 817.501,1032.18 818,1037.5C 819.598,1043.76 820.765,1050.09 821.5,1056.5C 819.923,1052.76 818.756,1048.76 818,1044.5C 817.828,1050.68 817.328,1056.68 816.5,1062.5C 816.74,1042.79 816.073,1023.12 814.5,1003.5C 815.167,996.5 815.833,989.5 816.5,982.5 Z"/></g>
<g><path style="opacity:1" fill="#7b66b8" d="M 683.5,1032.5 C 685.132,1039.94 685.799,1047.6 685.5,1055.5C 684.238,1048.03 683.571,1040.36 683.5,1032.5 Z"/></g>
<g><path style="opacity:1" fill="#8e76c4" d="M 733.5,1032.5 C 735.043,1040.62 735.71,1048.95 735.5,1057.5C 734.833,1053.17 734.167,1048.83 733.5,1044.5C 733.5,1040.5 733.5,1036.5 733.5,1032.5 Z"/></g>
<g><path style="opacity:1" fill="#6453aa" d="M 893.5,1045.5 C 895.082,1048.88 895.749,1052.54 895.5,1056.5C 893.783,1053.16 893.116,1049.49 893.5,1045.5 Z"/></g>
<g><path style="opacity:1" fill="#4f429c" d="M 1004.5,1064.5 C 1002.55,1056.09 1000.89,1047.75 999.5,1039.5C 999.811,1038.52 1000.48,1037.86 1001.5,1037.5C 1003.09,1046.43 1004.09,1055.43 1004.5,1064.5 Z"/></g>
<g><path style="opacity:1" fill="#836dbe" d="M 881.5,1049.5 C 882.924,1051.51 883.59,1053.85 883.5,1056.5C 882.076,1054.49 881.41,1052.15 881.5,1049.5 Z"/></g>
<g><path style="opacity:1" fill="#957bc8" d="M 704.5,1034.5 C 705.552,1038.65 706.386,1042.99 707,1047.5C 707.498,1044.18 707.665,1040.85 707.5,1037.5C 708.494,1047.99 708.828,1058.65 708.5,1069.5C 707.833,1068.5 707.167,1067.5 706.5,1066.5C 706.575,1055.78 705.909,1045.11 704.5,1034.5 Z"/></g>
<g><path style="opacity:1" fill="#6e5eb2" d="M 440.5,1214.5 C 440.666,1221.51 440.5,1228.51 440,1235.5C 439.283,1234.96 438.783,1234.29 438.5,1233.5C 439.167,1227.17 439.833,1220.83 440.5,1214.5 Z"/></g>
<g><path style="opacity:1" fill="#eabbfa" d="M 440.5,1214.5 C 443.5,1214.5 446.5,1214.5 449.5,1214.5C 449.5,1232.83 449.5,1251.17 449.5,1269.5C 446.5,1269.5 443.5,1269.5 440.5,1269.5C 440.785,1267.71 440.452,1266.05 439.5,1264.5C 438.702,1264.96 438.369,1265.62 438.5,1266.5C 432.711,1271.66 426.044,1272.82 418.5,1270C 408.65,1261.76 406.15,1251.59 411,1239.5C 416.125,1230.9 423.625,1227.73 433.5,1230C 435.584,1230.7 437.251,1231.86 438.5,1233.5C 438.783,1234.29 439.283,1234.96 440,1235.5C 440.5,1228.51 440.666,1221.51 440.5,1214.5 Z"/></g>
<g><path style="opacity:1" fill="#ba97de" d="M 449.5,1214.5 C 450.497,1232.99 450.83,1251.66 450.5,1270.5C 446.833,1270.5 443.167,1270.5 439.5,1270.5C 439.768,1268.9 439.434,1267.57 438.5,1266.5C 438.369,1265.62 438.702,1264.96 439.5,1264.5C 440.452,1266.05 440.785,1267.71 440.5,1269.5C 443.5,1269.5 446.5,1269.5 449.5,1269.5C 449.5,1251.17 449.5,1232.83 449.5,1214.5 Z"/></g>
<g><path style="opacity:1" fill="#e8baf9" d="M 874.5,1214.5 C 874.5,1232.83 874.5,1251.17 874.5,1269.5C 871.5,1269.5 868.5,1269.5 865.5,1269.5C 865.785,1267.71 865.452,1266.05 864.5,1264.5C 863.893,1264.62 863.56,1264.96 863.5,1265.5C 859.225,1271.09 853.559,1272.92 846.5,1271C 840.693,1269.19 836.859,1265.36 835,1259.5C 832.801,1252.36 833.134,1245.36 836,1238.5C 841.53,1230.76 849.03,1227.93 858.5,1230C 860.587,1230.79 862.421,1231.96 864,1233.5C 864.5,1227.18 864.666,1220.84 864.5,1214.5C 867.833,1214.5 871.167,1214.5 874.5,1214.5 Z"/></g>
<g><path style="opacity:1" fill="#aa8bd5" d="M 874.5,1214.5 C 875.497,1232.99 875.83,1251.66 875.5,1270.5C 871.833,1270.5 868.167,1270.5 864.5,1270.5C 864.784,1268.59 864.451,1266.92 863.5,1265.5C 863.56,1264.96 863.893,1264.62 864.5,1264.5C 865.452,1266.05 865.785,1267.71 865.5,1269.5C 868.5,1269.5 871.5,1269.5 874.5,1269.5C 874.5,1251.17 874.5,1232.83 874.5,1214.5 Z"/></g>
<g><path style="opacity:1" fill="#edbefc" d="M 1172.5,1214.5 C 1172.33,1221.84 1172.5,1229.17 1173,1236.5C 1174.04,1235.76 1174.54,1234.76 1174.5,1233.5C 1175.64,1232.2 1176.97,1231.03 1178.5,1230C 1184.92,1228.7 1190.92,1229.7 1196.5,1233C 1198.16,1234.49 1199.16,1236.32 1199.5,1238.5C 1199.5,1248.83 1199.5,1259.17 1199.5,1269.5C 1196.5,1269.5 1193.5,1269.5 1190.5,1269.5C 1190.83,1260.65 1190.49,1251.98 1189.5,1243.5C 1188.08,1237.78 1184.41,1235.62 1178.5,1237C 1175.37,1239.39 1173.53,1242.55 1173,1246.5C 1172.5,1254.49 1172.33,1262.49 1172.5,1270.5C 1169.17,1270.5 1165.83,1270.5 1162.5,1270.5C 1162.5,1251.83 1162.5,1233.17 1162.5,1214.5C 1165.83,1214.5 1169.17,1214.5 1172.5,1214.5 Z"/></g>
<g><path style="opacity:1" fill="#584ea5" d="M 1172.5,1214.5 C 1173.17,1220.83 1173.83,1227.17 1174.5,1233.5C 1174.54,1234.76 1174.04,1235.76 1173,1236.5C 1172.5,1229.17 1172.33,1221.84 1172.5,1214.5 Z"/></g>
<g><path style="opacity:1" fill="#e2b5f5" d="M 611.5,1215.5 C 617.83,1214.67 620.663,1217.33 620,1223.5C 617.162,1227.03 613.995,1227.37 610.5,1224.5C 608.992,1221.23 609.325,1218.23 611.5,1215.5 Z"/></g>
<g><path style="opacity:1" fill="#ecbdfb" d="M 369.5,1218.5 C 381.5,1218.5 393.5,1218.5 405.5,1218.5C 405.5,1221.17 405.5,1223.83 405.5,1226.5C 396.833,1226.5 388.167,1226.5 379.5,1226.5C 379.5,1231.17 379.5,1235.83 379.5,1240.5C 387.5,1240.5 395.5,1240.5 403.5,1240.5C 403.5,1243.17 403.5,1245.83 403.5,1248.5C 395.5,1248.5 387.5,1248.5 379.5,1248.5C 379.5,1252.83 379.5,1257.17 379.5,1261.5C 387.984,1262.49 396.651,1262.83 405.5,1262.5C 405.5,1264.83 405.5,1267.17 405.5,1269.5C 393.5,1269.5 381.5,1269.5 369.5,1269.5C 369.5,1252.5 369.5,1235.5 369.5,1218.5 Z"/></g>
<g><path style="opacity:1" fill="#c49fe4" d="M 732.5,1218.5 C 732.5,1235.5 732.5,1252.5 732.5,1269.5C 735.5,1269.5 738.5,1269.5 741.5,1269.5C 741.5,1269.83 741.5,1270.17 741.5,1270.5C 738.167,1270.5 734.833,1270.5 731.5,1270.5C 731.17,1252.99 731.503,1235.66 732.5,1218.5 Z"/></g>
<g><path style="opacity:1" fill="#eabcfa" d="M 732.5,1218.5 C 737.875,1218.17 743.208,1218.51 748.5,1219.5C 752.433,1232.8 756.266,1246.13 760,1259.5C 763.74,1246.12 767.573,1232.78 771.5,1219.5C 776.792,1218.51 782.125,1218.17 787.5,1218.5C 787.5,1235.83 787.5,1253.17 787.5,1270.5C 784.167,1270.5 780.833,1270.5 777.5,1270.5C 777.667,1257.5 777.5,1244.5 777,1231.5C 776.392,1233.15 775.892,1234.82 775.5,1236.5C 772.416,1247.59 769.083,1258.59 765.5,1269.5C 761.555,1270.49 757.555,1270.82 753.5,1270.5C 750.579,1258.07 747.246,1245.73 743.5,1233.5C 743.291,1232.08 742.791,1230.74 742,1229.5C 741.5,1242.83 741.333,1256.16 741.5,1269.5C 738.5,1269.5 735.5,1269.5 732.5,1269.5C 732.5,1252.5 732.5,1235.5 732.5,1218.5 Z"/></g>
<g><path style="opacity:1" fill="#e6b9f8" d="M 950.5,1217.5 C 960.903,1215.68 969.07,1219.02 975,1227.5C 975.495,1229.47 975.662,1231.47 975.5,1233.5C 972.167,1233.5 968.833,1233.5 965.5,1233.5C 965.051,1228.05 962.051,1225.39 956.5,1225.5C 949.971,1225.29 947.805,1228.29 950,1234.5C 951.167,1235.67 952.333,1236.83 953.5,1238C 961.49,1239.44 968.657,1242.6 975,1247.5C 979.129,1259.74 974.962,1267.58 962.5,1271C 953.14,1273.1 945.307,1270.6 939,1263.5C 937.451,1260.69 936.618,1257.69 936.5,1254.5C 939.85,1254.33 943.183,1254.5 946.5,1255C 950.236,1263.73 956.236,1265.73 964.5,1261C 967.488,1256.95 966.822,1253.62 962.5,1251C 956.673,1249.46 951.007,1247.46 945.5,1245C 939.198,1240.43 937.031,1234.27 939,1226.5C 942.093,1222.39 945.926,1219.39 950.5,1217.5 Z"/></g>
<g><path style="opacity:1" fill="#f0c0fe" d="M 1285.5,1218.5 C 1284.88,1230.49 1284.54,1242.49 1284.5,1254.5C 1282.17,1254.5 1279.83,1254.5 1277.5,1254.5C 1277.82,1248.31 1277.49,1242.31 1276.5,1236.5C 1276.5,1230.5 1276.5,1224.5 1276.5,1218.5C 1279.5,1218.5 1282.5,1218.5 1285.5,1218.5 Z"/></g>
<g><path style="opacity:1" fill="#ebbdfb" d="M 599.5,1263.5 C 600.568,1264.43 601.901,1264.77 603.5,1264.5C 603.5,1266.5 603.5,1268.5 603.5,1270.5C 599.5,1270.5 595.5,1270.5 591.5,1270.5C 588.808,1269.47 587.308,1267.47 587,1264.5C 586.5,1255.51 586.334,1246.51 586.5,1237.5C 584.5,1237.5 582.5,1237.5 580.5,1237.5C 580.5,1235.17 580.5,1232.83 580.5,1230.5C 582.5,1230.5 584.5,1230.5 586.5,1230.5C 586.5,1227.17 586.5,1223.83 586.5,1220.5C 589.833,1220.5 593.167,1220.5 596.5,1220.5C 596.5,1223.83 596.5,1227.17 596.5,1230.5C 599.5,1230.5 602.5,1230.5 605.5,1230.5C 605.5,1232.83 605.5,1235.17 605.5,1237.5C 602.5,1237.5 599.5,1237.5 596.5,1237.5C 596.334,1245.17 596.5,1252.84 597,1260.5C 597.377,1261.94 598.21,1262.94 599.5,1263.5 Z"/></g>
<g><path style="opacity:1" fill="#ecbefb" d="M 1157.5,1230.5 C 1157.5,1232.5 1157.5,1234.5 1157.5,1236.5C 1154.61,1236.19 1151.95,1236.53 1149.5,1237.5C 1149.33,1245.17 1149.5,1252.84 1150,1260.5C 1150.23,1261.74 1150.73,1262.74 1151.5,1263.5C 1152.92,1264.45 1154.59,1264.78 1156.5,1264.5C 1156.5,1266.5 1156.5,1268.5 1156.5,1270.5C 1152.5,1270.5 1148.5,1270.5 1144.5,1270.5C 1141.81,1269.98 1140.31,1268.31 1140,1265.5C 1139.5,1256.17 1139.33,1246.84 1139.5,1237.5C 1137.5,1237.5 1135.5,1237.5 1133.5,1237.5C 1133.5,1235.17 1133.5,1232.83 1133.5,1230.5C 1135.5,1230.5 1137.5,1230.5 1139.5,1230.5C 1139.5,1227.17 1139.5,1223.83 1139.5,1220.5C 1142.83,1220.5 1146.17,1220.5 1149.5,1220.5C 1149.5,1223.83 1149.5,1227.17 1149.5,1230.5C 1152.17,1230.5 1154.83,1230.5 1157.5,1230.5 Z"/></g>
<g><path style="opacity:1" fill="#50469f" d="M 981.5,1230.5 C 984.962,1229.52 988.629,1229.19 992.5,1229.5C 992.216,1231.41 992.549,1233.08 993.5,1234.5C 993.44,1235.04 993.107,1235.38 992.5,1235.5C 991.548,1233.95 991.215,1232.29 991.5,1230.5C 988.167,1230.5 984.833,1230.5 981.5,1230.5 Z"/></g>
<g><path style="opacity:1" fill="#e8baf9" d="M 494.5,1230.5 C 494.5,1243.5 494.5,1256.5 494.5,1269.5C 491.5,1269.5 488.5,1269.5 485.5,1269.5C 485.785,1267.71 485.452,1266.05 484.5,1264.5C 483.702,1264.96 483.369,1265.62 483.5,1266.5C 480.664,1270.16 476.831,1271.83 472,1271.5C 464.545,1271.43 459.878,1267.77 458,1260.5C 457.5,1250.51 457.334,1240.51 457.5,1230.5C 461.167,1230.5 464.833,1230.5 468.5,1230.5C 468.334,1239.51 468.5,1248.51 469,1257.5C 469.252,1261.73 471.419,1263.73 475.5,1263.5C 481.253,1263.39 484.42,1260.39 485,1254.5C 485.5,1246.51 485.666,1238.51 485.5,1230.5C 488.5,1230.5 491.5,1230.5 494.5,1230.5 Z"/></g>
<g><path style="opacity:1" fill="#b896dd" d="M 494.5,1230.5 C 495.496,1243.66 495.829,1256.99 495.5,1270.5C 491.833,1270.5 488.167,1270.5 484.5,1270.5C 484.768,1268.9 484.434,1267.57 483.5,1266.5C 483.369,1265.62 483.702,1264.96 484.5,1264.5C 485.452,1266.05 485.785,1267.71 485.5,1269.5C 488.5,1269.5 491.5,1269.5 494.5,1269.5C 494.5,1256.5 494.5,1243.5 494.5,1230.5 Z"/></g>
<g><path style="opacity:1" fill="#e5b8f7" d="M 514.5,1229.5 C 523.502,1228.11 531.002,1230.78 537,1237.5C 538.202,1239.68 538.702,1242.01 538.5,1244.5C 535.167,1244.5 531.833,1244.5 528.5,1244.5C 527.77,1239.71 524.937,1237.37 520,1237.5C 515.632,1237.2 512.965,1239.2 512,1243.5C 511.333,1247.83 511.333,1252.17 512,1256.5C 514.376,1263.46 518.876,1265.3 525.5,1262C 526.861,1260.42 527.528,1258.58 527.5,1256.5C 531.167,1256.5 534.833,1256.5 538.5,1256.5C 534.822,1268.18 526.822,1273.02 514.5,1271C 507.161,1268.83 502.661,1264 501,1256.5C 498.557,1243.79 503.057,1234.79 514.5,1229.5 Z"/></g>
<g><path style="opacity:1" fill="#e7b9f8" d="M 575.5,1237.5 C 575.263,1248.2 575.596,1258.86 576.5,1269.5C 572.821,1269.94 569.488,1269.27 566.5,1267.5C 566.631,1266.76 566.464,1266.09 566,1265.5C 561.914,1271.12 556.414,1272.95 549.5,1271C 542.786,1267.56 540.286,1262.06 542,1254.5C 544.638,1250.87 548.138,1248.37 552.5,1247C 556.79,1246.08 561.123,1245.58 565.5,1245.5C 566.52,1240.27 564.52,1237.27 559.5,1236.5C 555.35,1236.98 553.35,1239.32 553.5,1243.5C 549.833,1243.5 546.167,1243.5 542.5,1243.5C 543.209,1236.58 546.876,1232.08 553.5,1230C 560.249,1228.67 566.582,1229.67 572.5,1233C 574.141,1234.13 575.141,1235.63 575.5,1237.5 Z"/></g>
<g><path style="opacity:1" fill="#e3b6f6" d="M 609.5,1230.5 C 613.167,1230.5 616.833,1230.5 620.5,1230.5C 620.5,1243.83 620.5,1257.17 620.5,1270.5C 616.833,1270.5 613.167,1270.5 609.5,1270.5C 609.5,1257.17 609.5,1243.83 609.5,1230.5 Z"/></g>
<g><path style="opacity:1" fill="#e6b8f8" d="M 639.5,1229.5 C 659.606,1227.61 668.439,1236.61 666,1256.5C 660.751,1269.71 651.251,1274.21 637.5,1270C 629.013,1265.87 625.013,1259.03 625.5,1249.5C 625.273,1239.25 629.94,1232.59 639.5,1229.5 Z"/></g>
<g><path style="opacity:1" fill="#edbefc" d="M 682.5,1244.5 C 681.507,1252.65 681.174,1260.98 681.5,1269.5C 678.5,1269.5 675.5,1269.5 672.5,1269.5C 672.5,1256.5 672.5,1243.5 672.5,1230.5C 675.833,1230.5 679.167,1230.5 682.5,1230.5C 682.34,1232.2 682.506,1233.87 683,1235.5C 685.419,1230.96 689.252,1228.96 694.5,1229.5C 700.013,1229.28 704.513,1231.28 708,1235.5C 709.457,1247.07 709.957,1258.73 709.5,1270.5C 706.167,1270.5 702.833,1270.5 699.5,1270.5C 699.951,1260.06 699.451,1249.73 698,1239.5C 690.516,1234.32 685.349,1235.99 682.5,1244.5 Z"/></g>
<g><path style="opacity:1" fill="#e7b9f8" d="M 827.5,1237.5 C 827.263,1248.2 827.596,1258.86 828.5,1269.5C 824.821,1269.94 821.488,1269.27 818.5,1267.5C 818.631,1266.76 818.464,1266.09 818,1265.5C 813.914,1271.12 808.414,1272.95 801.5,1271C 794.786,1267.56 792.286,1262.06 794,1254.5C 796.638,1250.87 800.138,1248.37 804.5,1247C 808.79,1246.08 813.123,1245.58 817.5,1245.5C 818.52,1240.27 816.52,1237.27 811.5,1236.5C 807.35,1236.98 805.35,1239.32 805.5,1243.5C 801.833,1243.5 798.167,1243.5 794.5,1243.5C 795.209,1236.58 798.876,1232.08 805.5,1230C 812.249,1228.67 818.582,1229.67 824.5,1233C 826.141,1234.13 827.141,1235.63 827.5,1237.5 Z"/></g>
<g><path style="opacity:1" fill="#e9bbf9" d="M 918.5,1242.5 C 918.5,1245.83 918.5,1249.17 918.5,1252.5C 909.318,1252.17 900.318,1252.51 891.5,1253.5C 891.719,1262.21 896.052,1265.38 904.5,1263C 907.897,1258.27 912.563,1256.44 918.5,1257.5C 917.014,1265.15 912.348,1269.65 904.5,1271C 888.86,1272.83 880.86,1265.83 880.5,1250C 883.704,1230.73 894.371,1225.06 912.5,1233C 915.647,1235.46 917.647,1238.63 918.5,1242.5 Z"/></g>
<g><path style="opacity:1" fill="#eabbfa" d="M 1018.5,1240.5 C 1017.88,1240.61 1017.38,1240.94 1017,1241.5C 1016.5,1251.16 1016.33,1260.83 1016.5,1270.5C 1013.17,1270.5 1009.83,1270.5 1006.5,1270.5C 1006.67,1260.49 1006.5,1250.49 1006,1240.5C 1001.62,1235.3 997.457,1235.3 993.5,1240.5C 992.883,1240.61 992.383,1240.94 992,1241.5C 991.5,1251.16 991.334,1260.83 991.5,1270.5C 988.167,1270.5 984.833,1270.5 981.5,1270.5C 981.5,1257.17 981.5,1243.83 981.5,1230.5C 984.833,1230.5 988.167,1230.5 991.5,1230.5C 991.215,1232.29 991.548,1233.95 992.5,1235.5C 993.107,1235.38 993.44,1235.04 993.5,1234.5C 993.511,1232.98 994.177,1231.82 995.5,1231C 1003.58,1227.93 1010.58,1229.43 1016.5,1235.5C 1020.81,1229.91 1026.48,1228.08 1033.5,1230C 1036.94,1231.1 1039.44,1233.27 1041,1236.5C 1041.5,1247.83 1041.67,1259.16 1041.5,1270.5C 1038.17,1270.5 1034.83,1270.5 1031.5,1270.5C 1031.67,1260.83 1031.5,1251.16 1031,1241.5C 1028.73,1236.95 1025.23,1235.62 1020.5,1237.5C 1019.81,1238.52 1019.14,1239.52 1018.5,1240.5 Z"/></g>
<g><path style="opacity:1" fill="#e6b9f8" d="M 1061.5,1229.5 C 1085.1,1229.37 1092.93,1240.37 1085,1262.5C 1076.3,1272.2 1066.13,1274.04 1054.5,1268C 1046.17,1259.42 1044.34,1249.59 1049,1238.5C 1052.26,1234.05 1056.43,1231.05 1061.5,1229.5 Z"/></g>
<g><path style="opacity:1" fill="#e6b9f8" d="M 1105.5,1229.5 C 1129.1,1229.37 1136.93,1240.37 1129,1262.5C 1120.3,1272.2 1110.13,1274.04 1098.5,1268C 1090.17,1259.42 1088.34,1249.59 1093,1238.5C 1096.26,1234.05 1100.43,1231.05 1105.5,1229.5 Z"/></g>
<g><path style="opacity:1" fill="#e8baf9" d="M 1243.5,1244.5 C 1243.5,1247.17 1243.5,1249.83 1243.5,1252.5C 1233.99,1252.17 1224.65,1252.51 1215.5,1253.5C 1216.71,1262.87 1221.71,1265.71 1230.5,1262C 1231.29,1260.91 1231.96,1259.75 1232.5,1258.5C 1236.17,1257.17 1239.83,1257.17 1243.5,1258.5C 1238.45,1269.03 1230.11,1273.19 1218.5,1271C 1212.33,1268.83 1208.17,1264.67 1206,1258.5C 1202.15,1238.36 1210.32,1228.86 1230.5,1230C 1238.24,1231.9 1242.57,1236.73 1243.5,1244.5 Z"/></g>
<g><path style="opacity:1" fill="#ebbdfb" d="M 1265.5,1229.5 C 1267.83,1229.5 1270.17,1229.5 1272.5,1229.5C 1272.5,1232.5 1272.5,1235.5 1272.5,1238.5C 1267.26,1237.27 1263.42,1238.94 1261,1243.5C 1259.62,1252.43 1259.12,1261.43 1259.5,1270.5C 1256.17,1270.5 1252.83,1270.5 1249.5,1270.5C 1249.5,1257.17 1249.5,1243.83 1249.5,1230.5C 1252.83,1230.5 1256.17,1230.5 1259.5,1230.5C 1259.34,1232.53 1259.5,1234.53 1260,1236.5C 1261.37,1233.73 1263.2,1231.4 1265.5,1229.5 Z"/></g>
<g><path style="opacity:1" fill="#7d6abb" d="M 743.5,1233.5 C 742.833,1245.83 742.167,1258.17 741.5,1270.5C 741.5,1270.17 741.5,1269.83 741.5,1269.5C 741.333,1256.16 741.5,1242.83 742,1229.5C 742.791,1230.74 743.291,1232.08 743.5,1233.5 Z"/></g>
<g><path style="opacity:1" fill="#9b7fcb" d="M 1157.5,1230.5 C 1158.47,1232.61 1158.8,1234.94 1158.5,1237.5C 1155.5,1237.5 1152.5,1237.5 1149.5,1237.5C 1151.95,1236.53 1154.61,1236.19 1157.5,1236.5C 1157.5,1234.5 1157.5,1232.5 1157.5,1230.5 Z"/></g>
<g><path style="opacity:1" fill="#0b1175" d="M 425.5,1236.5 C 431.343,1235.67 435.843,1237.67 439,1242.5C 439.667,1247.5 439.667,1252.5 439,1257.5C 435.767,1263.42 430.934,1265.08 424.5,1262.5C 417.748,1253.59 418.081,1244.92 425.5,1236.5 Z"/></g>
<g><path style="opacity:1" fill="#091075" d="M 643.5,1236.5 C 648.55,1236.27 652.383,1238.27 655,1242.5C 655.667,1247.17 655.667,1251.83 655,1256.5C 652.747,1263.11 648.247,1265.27 641.5,1263C 639.106,1261.05 637.606,1258.55 637,1255.5C 635.909,1249.9 636.576,1244.57 639,1239.5C 640.409,1238.22 641.909,1237.22 643.5,1236.5 Z"/></g>
<g><path style="opacity:1" fill="#363491" d="M 777.5,1270.5 C 776.833,1259.17 776.167,1247.83 775.5,1236.5C 775.892,1234.82 776.392,1233.15 777,1231.5C 777.5,1244.5 777.667,1257.5 777.5,1270.5 Z"/></g>
<g><path style="opacity:1" fill="#0a1175" d="M 852.5,1236.5 C 857.513,1236.26 861.346,1238.26 864,1242.5C 865.127,1248.75 864.46,1254.75 862,1260.5C 858.319,1263.36 854.152,1264.19 849.5,1263C 846.819,1260.81 845.319,1257.97 845,1254.5C 842.787,1246.26 845.287,1240.26 852.5,1236.5 Z"/></g>
<g><path style="opacity:1" fill="#18187b" d="M 896.5,1236.5 C 903.946,1235.96 907.946,1239.29 908.5,1246.5C 902.833,1246.5 897.167,1246.5 891.5,1246.5C 891.651,1242.37 893.317,1239.03 896.5,1236.5 Z"/></g>
<g><path style="opacity:1" fill="#0d1176" d="M 1064.5,1236.5 C 1070.56,1236.28 1074.73,1238.94 1077,1244.5C 1078.95,1251.86 1077.12,1258.03 1071.5,1263C 1068.5,1263.67 1065.5,1263.67 1062.5,1263C 1057.97,1257.66 1056.47,1251.49 1058,1244.5C 1059,1240.8 1061.17,1238.13 1064.5,1236.5 Z"/></g>
<g><path style="opacity:1" fill="#0d1176" d="M 1108.5,1236.5 C 1114.56,1236.28 1118.73,1238.94 1121,1244.5C 1122.95,1251.86 1121.12,1258.03 1115.5,1263C 1112.5,1263.67 1109.5,1263.67 1106.5,1263C 1101.97,1257.66 1100.47,1251.49 1102,1244.5C 1103,1240.8 1105.17,1238.13 1108.5,1236.5 Z"/></g>
<g><path style="opacity:1" fill="#1e1a7d" d="M 1220.5,1236.5 C 1228.38,1235.39 1232.71,1238.72 1233.5,1246.5C 1227.5,1246.5 1221.5,1246.5 1215.5,1246.5C 1216.11,1242.62 1217.78,1239.28 1220.5,1236.5 Z"/></g>
<g><path style="opacity:1" fill="#ab8bd5" d="M 1285.5,1218.5 C 1286.44,1230.67 1286.44,1243 1285.5,1255.5C 1282.5,1255.5 1279.5,1255.5 1276.5,1255.5C 1276.5,1249.17 1276.5,1242.83 1276.5,1236.5C 1277.49,1242.31 1277.82,1248.31 1277.5,1254.5C 1279.83,1254.5 1282.17,1254.5 1284.5,1254.5C 1284.54,1242.49 1284.88,1230.49 1285.5,1218.5 Z"/></g>
<g><path style="opacity:1" fill="#8872c1" d="M 993.5,1240.5 C 992.88,1250.63 992.214,1260.63 991.5,1270.5C 991.334,1260.83 991.5,1251.16 992,1241.5C 992.383,1240.94 992.883,1240.61 993.5,1240.5 Z"/></g>
<g><path style="opacity:1" fill="#6d5db1" d="M 1018.5,1240.5 C 1017.88,1250.63 1017.21,1260.63 1016.5,1270.5C 1016.33,1260.83 1016.5,1251.16 1017,1241.5C 1017.38,1240.94 1017.88,1240.61 1018.5,1240.5 Z"/></g>
<g><path style="opacity:1" fill="#a185d0" d="M 1199.5,1238.5 C 1200.49,1248.99 1200.83,1259.65 1200.5,1270.5C 1196.83,1270.5 1193.17,1270.5 1189.5,1270.5C 1189.5,1261.5 1189.5,1252.5 1189.5,1243.5C 1190.49,1251.98 1190.83,1260.65 1190.5,1269.5C 1193.5,1269.5 1196.5,1269.5 1199.5,1269.5C 1199.5,1259.17 1199.5,1248.83 1199.5,1238.5 Z"/></g>
<g><path style="opacity:1" fill="#ab8cd6" d="M 672.5,1230.5 C 672.5,1243.5 672.5,1256.5 672.5,1269.5C 675.5,1269.5 678.5,1269.5 681.5,1269.5C 681.174,1260.98 681.507,1252.65 682.5,1244.5C 682.5,1253.17 682.5,1261.83 682.5,1270.5C 678.833,1270.5 675.167,1270.5 671.5,1270.5C 671.171,1256.99 671.504,1243.66 672.5,1230.5 Z"/></g>
<g><path style="opacity:1" fill="#151579" d="M 557.5,1252.5 C 560.5,1252.5 563.5,1252.5 566.5,1252.5C 566.913,1261.26 562.913,1264.76 554.5,1263C 551.216,1258.16 552.216,1254.66 557.5,1252.5 Z"/></g>
<g><path style="opacity:1" fill="#151579" d="M 809.5,1252.5 C 812.5,1252.5 815.5,1252.5 818.5,1252.5C 818.913,1261.26 814.913,1264.76 806.5,1263C 803.216,1258.16 804.216,1254.66 809.5,1252.5 Z"/></g>
<g><path style="opacity:1" fill="#9c81cd" d="M 918.5,1242.5 C 919.482,1245.96 919.815,1249.63 919.5,1253.5C 910.167,1253.5 900.833,1253.5 891.5,1253.5C 900.318,1252.51 909.318,1252.17 918.5,1252.5C 918.5,1249.17 918.5,1245.83 918.5,1242.5 Z"/></g>
<g><path style="opacity:1" fill="#927ac7" d="M 1243.5,1244.5 C 1244.48,1247.29 1244.81,1250.29 1244.5,1253.5C 1234.83,1253.5 1225.17,1253.5 1215.5,1253.5C 1224.65,1252.51 1233.99,1252.17 1243.5,1252.5C 1243.5,1249.83 1243.5,1247.17 1243.5,1244.5 Z"/></g>
<g><path style="opacity:1" fill="#e3b7f6" d="M 1278.5,1259.5 C 1285.56,1258.73 1288.06,1261.73 1286,1268.5C 1282.67,1272.5 1279.33,1272.5 1276,1268.5C 1274.93,1264.9 1275.76,1261.9 1278.5,1259.5 Z"/></g>
<g><path style="opacity:1" fill="#9279c6" d="M 1151.5,1263.5 C 1153.5,1263.5 1155.5,1263.5 1157.5,1263.5C 1157.5,1266.17 1157.5,1268.83 1157.5,1271.5C 1152.97,1271.82 1148.63,1271.48 1144.5,1270.5C 1148.5,1270.5 1152.5,1270.5 1156.5,1270.5C 1156.5,1268.5 1156.5,1266.5 1156.5,1264.5C 1154.59,1264.78 1152.92,1264.45 1151.5,1263.5 Z"/></g>
<g><path style="opacity:1" fill="#ab8dd6" d="M 369.5,1218.5 C 369.5,1235.5 369.5,1252.5 369.5,1269.5C 381.5,1269.5 393.5,1269.5 405.5,1269.5C 405.5,1267.17 405.5,1264.83 405.5,1262.5C 396.651,1262.83 387.984,1262.49 379.5,1261.5C 388.5,1261.5 397.5,1261.5 406.5,1261.5C 406.5,1264.5 406.5,1267.5 406.5,1270.5C 393.833,1270.5 381.167,1270.5 368.5,1270.5C 368.17,1252.99 368.503,1235.66 369.5,1218.5 Z"/></g>
<g><path style="opacity:1" fill="#a789d3" d="M 575.5,1237.5 C 576.312,1248.34 576.979,1259.34 577.5,1270.5C 573.833,1270.5 570.167,1270.5 566.5,1270.5C 566.5,1269.5 566.5,1268.5 566.5,1267.5C 569.488,1269.27 572.821,1269.94 576.5,1269.5C 575.596,1258.86 575.263,1248.2 575.5,1237.5 Z"/></g>
<g><path style="opacity:1" fill="#a789d3" d="M 827.5,1237.5 C 828.312,1248.34 828.979,1259.34 829.5,1270.5C 825.833,1270.5 822.167,1270.5 818.5,1270.5C 818.5,1269.5 818.5,1268.5 818.5,1267.5C 821.488,1269.27 824.821,1269.94 828.5,1269.5C 827.596,1258.86 827.263,1248.2 827.5,1237.5 Z"/></g>
<g><path style="opacity:1" fill="#9c80cc" d="M 599.5,1263.5 C 601.167,1263.5 602.833,1263.5 604.5,1263.5C 604.5,1266.17 604.5,1268.83 604.5,1271.5C 599.968,1271.82 595.634,1271.48 591.5,1270.5C 595.5,1270.5 599.5,1270.5 603.5,1270.5C 603.5,1268.5 603.5,1266.5 603.5,1264.5C 601.901,1264.77 600.568,1264.43 599.5,1263.5 Z"/></g>
<g><path style="opacity:1" fill="#8085b2" d="M 1651.5,3.5 C 1652.5,554 1652.83,1104.67 1652.5,1655.5C 1102.17,1655.5 551.833,1655.5 1.5,1655.5C 1.5,1655.17 1.5,1654.83 1.5,1654.5C 551.167,1654.5 1100.83,1654.5 1650.5,1654.5C 1651.5,1104.33 1651.83,554 1651.5,3.5 Z"/></g>
</svg>
